<?xml version="1.0" encoding="iso-8859-1"?>
<!-- Generator: Adobe Illustrator 18.0.0, SVG Export Plug-In . SVG Version: 6.00 Build 0)  -->
<!DOCTYPE svg PUBLIC "-//W3C//DTD SVG 1.1//EN" "http://www.w3.org/Graphics/SVG/1.1/DTD/svg11.dtd">
<svg version="1.1" id="Capa_1" xmlns="http://www.w3.org/2000/svg" xmlns:xlink="http://www.w3.org/1999/xlink" x="0px" y="0px"
	 viewBox="0 0 330 330" style="enable-background:new 0 0 330 330;" xml:space="preserve">
<path d="M325.606,304.394L223.328,202.117c16.707-21.256,26.683-48.041,26.683-77.111C250.011,56.077,193.934,0,125.005,0
	C56.077,0,0,56.077,0,125.006C0,193.933,56.077,250.01,125.005,250.01c29.07,0,55.855-9.975,77.11-26.681l102.278,102.277
	C307.322,328.536,311.161,330,315,330s7.678-1.464,10.606-4.394C331.465,319.749,331.465,310.251,325.606,304.394z M30,125.006
	C30,72.619,72.619,30,125.005,30c52.387,0,95.006,42.619,95.006,95.005c0,52.386-42.619,95.004-95.006,95.004
	C72.619,220.01,30,177.391,30,125.006z"/>
<g>
</g>
<g>
</g>
<g>
</g>
<g>
</g>
<g>
</g>
<g>
</g>
<g>
</g>
<g>
</g>
<g>
</g>
<g>
</g>
<g>
</g>
<g>
</g>
<g>
</g>
<g>
</g>
<g>
</g>
</svg>
